<?xml version="1.0" standalone="no"?>
<!DOCTYPE svg PUBLIC "-//W3C//DTD SVG 20010904//EN"
 "http://www.w3.org/TR/2001/REC-SVG-20010904/DTD/svg10.dtd">
<svg version="1.0" xmlns="http://www.w3.org/2000/svg"
 width="260.000000pt" height="260.000000pt" viewBox="0 0 260.000000 260.000000"
 preserveAspectRatio="xMidYMid meet">
<metadata>
Created by potrace 1.11, written by Peter Selinger 2001-2013
</metadata>
<g transform="translate(0.000000,260.000000) scale(0.100000,-0.100000)"
fill="#000000" stroke="none">
<path d="M1080 2521 l0 -79 43 -21 c35 -17 37 -20 12 -15 -16 4 -34 10 -40 13
-25 15 -120 29 -130 19 -7 -8 -5 -8 5 -3 13 8 13 7 1 -8 -14 -18 -22 -22 -20
-9 3 18 -2 35 -8 28 -13 -12 -9 -40 7 -54 12 -10 10 -10 -14 0 -15 7 -23 14
-17 16 17 6 13 22 -5 22 -9 0 -12 5 -8 12 4 7 3 8 -5 4 -6 -4 -9 -12 -6 -17 4
-5 2 -9 -4 -9 -5 0 -13 5 -16 10 -10 16 -28 12 -22 -5 4 -8 2 -17 -3 -20 -6
-4 -11 2 -11 12 -1 10 -5 5 -9 -12 -4 -16 -8 -22 -9 -13 -1 16 -4 16 -38 1
-21 -8 -42 -21 -46 -29 -9 -16 -37 -19 -37 -5 0 5 6 12 13 14 8 4 6 6 -4 6 -9
1 -24 -8 -33 -18 -10 -10 -25 -18 -34 -16 -18 3 -85 -63 -107 -105 -9 -17 -28
-31 -52 -38 -22 -6 -48 -21 -59 -32 -10 -11 -31 -32 -45 -46 -15 -14 -33 -46
-40 -72 -7 -26 -18 -56 -25 -67 -10 -18 -21 -53 -24 -80 -1 -5 -7 -17 -14 -25
-7 -8 -12 -22 -12 -30 1 -8 -7 -23 -17 -33 -10 -10 -15 -22 -12 -27 4 -6 1
-10 -4 -10 -6 0 -11 -5 -11 -11 0 -5 6 -7 13 -4 6 4 3 -1 -7 -9 -14 -11 -15
-16 -6 -16 9 0 7 -5 -6 -15 -16 -13 -17 -16 -4 -25 8 -5 10 -10 4 -10 -18 0
-38 -65 -48 -160 -2 -14 -7 -53 -11 -87 l-8 -63 -75 0 c-95 0 -90 -9 6 -11 40
-1 72 -6 72 -11 0 -6 -29 -7 -75 -4 -48 4 -75 3 -75 -4 0 -6 31 -10 75 -10 65
0 75 -2 74 -17 0 -11 -3 -13 -6 -5 -3 8 -28 12 -74 12 -62 0 -69 -2 -69 -20 0
-17 8 -20 78 -23 l77 -3 -77 -2 c-70 -2 -78 -4 -78 -21 0 -16 8 -21 48 -24
l47 -3 -47 -2 c-27 -1 -48 -6 -48 -11 0 -6 21 -12 48 -14 l47 -3 -47 -2 c-40
-2 -48 -5 -48 -22 0 -18 8 -20 97 -23 l98 -3 -97 -2 c-90 -2 -98 -4 -98 -21 0
-15 8 -21 33 -24 l32 -4 -32 -1 -33 -2 0 -169 c0 -153 2 -170 18 -174 16 -4
16 -5 0 -6 -12 -1 -18 -9 -18 -25 0 -20 6 -25 33 -29 l32 -4 -32 -1 -33 -2 0
-205 0 -205 51 0 c27 0 48 -4 45 -9 -3 -5 -15 -7 -26 -4 -11 3 -20 0 -20 -6 0
-8 -5 -9 -19 -1 -11 5 -22 10 -25 10 -3 0 -6 -36 -6 -79 0 -79 0 -80 27 -84
l28 -4 -27 -2 c-21 -1 -28 -6 -28 -21 0 -17 7 -20 58 -22 l57 -1 -55 -6 c-40
-4 -56 -10 -58 -22 -4 -26 92 -28 991 -29 651 0 817 2 817 12 0 8 3 9 8 3 4
-6 75 -10 172 -11 l165 -1 -120 13 -120 13 145 -5 c80 -3 159 -7 175 -9 17 -3
107 -7 200 -9 99 -3 147 -1 115 3 l-55 8 53 1 c44 2 52 5 52 21 0 16 -8 21
-42 24 l-43 4 43 1 c40 2 42 4 42 32 0 23 -4 30 -20 30 -11 0 -20 6 -20 13 0
8 -4 7 -10 -3 -7 -11 -10 -11 -10 -2 0 10 -5 10 -20 2 -16 -9 -20 -8 -20 5 0
11 12 15 51 15 43 0 50 3 47 17 -3 15 -12 17 -55 15 -29 -2 -58 0 -65 4 -7 5
-39 7 -70 5 -31 -1 -62 0 -69 4 -6 4 -53 7 -104 6 -51 -1 -95 1 -98 6 -6 10
284 16 292 6 8 -10 171 -4 171 7 0 11 -65 22 -127 21 -29 0 -54 4 -54 9 -1 6
-2 16 -3 23 -1 7 -12 11 -30 9 -25 -3 -28 -1 -23 17 5 20 1 21 -61 22 -37 1
-71 1 -77 -1 -5 -1 -15 7 -22 16 -7 10 -13 13 -13 7 0 -7 -22 -12 -57 -12 -38
0 -52 3 -42 10 11 7 11 9 -4 9 -10 0 -16 4 -13 9 7 10 -26 20 -69 22 -45 1
-19 7 68 14 42 4 77 10 77 14 0 4 -8 7 -17 8 -10 0 -32 2 -50 4 -30 3 -31 4
-15 20 9 9 21 14 26 11 5 -3 6 1 1 8 -6 10 -4 12 9 7 9 -4 15 -3 12 2 -3 5 2
12 11 15 10 4 14 4 11 0 -4 -3 -2 -11 4 -18 13 -14 80 -8 90 8 5 7 8 5 8 -5 0
-20 17 -27 77 -35 30 -3 43 -1 38 6 -3 5 -21 10 -38 11 -31 1 -31 1 8 11 22 5
93 8 158 5 110 -5 117 -4 117 14 0 15 -8 19 -42 20 -74 3 -109 7 -116 14 -4 4
30 5 76 3 45 -3 82 -1 82 3 0 8 -85 17 -262 25 -134 7 -138 6 -167 -17 -16
-13 -52 -37 -80 -54 -28 -16 -51 -33 -51 -37 0 -15 -30 -8 -30 7 0 16 -26 31
-55 30 -11 0 -35 10 -54 23 -19 12 -40 21 -47 18 -7 -3 -15 3 -17 12 -9 39
-31 -48 -37 -148 -9 -145 -27 -180 -95 -180 -14 0 -28 -6 -31 -14 -12 -32 -89
-41 -120 -15 -11 9 -15 8 -20 -5 -9 -23 -23 -20 -17 4 4 16 2 19 -13 14 -11
-4 -24 -11 -30 -15 -6 -5 -20 -2 -32 7 -12 8 -22 12 -22 7 0 -4 -9 9 -19 28
-33 62 -23 114 37 197 67 92 83 132 72 173 -15 50 -1 114 30 144 25 24 29 25
43 11 14 -14 16 -14 21 0 3 9 3 20 0 26 -4 5 4 5 16 -2 l23 -12 -23 37 c-23
37 -23 37 -2 26 15 -8 22 -8 22 -1 0 5 -4 10 -9 10 -5 0 -8 12 -8 26 0 14 -8
33 -16 42 -15 14 -15 16 1 28 14 10 15 15 2 40 -7 16 -12 33 -11 39 1 5 -5 15
-14 21 -16 12 -16 14 1 36 l17 24 24 -24 c14 -14 23 -33 21 -46 -4 -24 34 -63
70 -72 20 -6 26 -16 23 -37 0 -4 3 -7 8 -7 5 0 17 -3 27 -7 12 -4 15 -3 10 5
-4 7 -2 12 3 12 6 0 11 -4 11 -9 0 -4 11 -6 25 -3 21 4 25 10 26 41 1 33 2 34
9 11 16 -51 11 -164 -12 -271 -2 -10 5 -13 22 -12 l25 3 -25 -22 -25 -21 40 8
c22 4 55 7 74 6 31 -2 32 -1 16 16 -17 16 -16 18 10 41 15 13 34 21 41 18 17
-7 18 8 2 37 -10 20 -10 21 6 8 9 -8 19 -11 23 -7 3 3 1 6 -5 6 -7 0 -12 7
-12 15 0 8 7 15 15 15 8 0 15 7 15 15 0 8 5 15 10 15 22 0 26 2 46 21 l22 20
6 -24 c3 -14 9 -33 13 -43 4 -10 2 -15 -4 -11 -5 4 -9 -9 -8 -33 1 -28 -2 -37
-12 -33 -7 3 -13 0 -13 -7 0 -21 -26 -40 -39 -27 -8 8 -11 5 -11 -12 0 -20 3
-22 27 -16 32 8 33 8 56 6 11 -1 15 -6 11 -12 -3 -6 -1 -15 7 -19 20 -13 72
28 66 52 -4 16 -3 17 9 7 21 -18 17 -48 -13 -87 -20 -27 -23 -34 -9 -29 10 4
20 7 22 7 3 0 2 5 -1 10 -3 6 1 13 9 16 9 3 13 10 10 15 -14 23 32 18 105 -10
44 -17 95 -31 113 -31 59 0 108 12 108 26 0 10 -6 11 -26 4 -57 -22 -233 8
-226 39 1 7 -2 10 -8 6 -5 -3 -10 -1 -10 4 0 6 4 11 9 11 4 0 6 10 4 23 -10
52 92 50 215 -4 l42 -19 0 39 c0 36 -3 40 -27 44 l-28 4 28 2 c25 1 27 4 27
40 0 29 -5 40 -18 43 -10 3 -87 6 -172 7 -85 1 -161 7 -170 12 -10 6 51 7 173
3 l187 -7 0 36 c0 19 -6 38 -12 40 -9 4 -8 6 2 7 8 0 -1 8 -20 16 -23 10 -64
15 -125 14 -150 -2 -185 0 -185 9 0 5 75 7 173 4 99 -3 168 -2 164 3 -5 5 -86
12 -180 15 l-172 6 178 -1 c97 0 177 2 177 6 0 4 -15 9 -32 11 l-33 4 33 1
c17 1 32 6 32 12 0 5 -49 11 -112 13 l-113 3 113 2 c160 3 145 21 -20 24
l-133 2 135 6 c84 3 120 7 95 11 l-40 6 38 1 c20 1 37 7 37 12 0 6 -45 11
-112 11 -62 1 -165 5 -228 9 -77 5 -39 6 113 3 159 -4 227 -2 227 6 0 7 -47
11 -137 14 l-138 3 138 2 c76 1 137 6 137 11 0 5 -8 12 -17 14 -16 4 -15 5 2
8 11 1 -18 6 -65 9 l-85 6 83 2 c130 3 97 21 -45 25 l-128 3 128 2 c195 3 160
22 -45 24 l-173 2 175 6 c120 3 156 7 115 11 l-60 5 58 2 c99 3 63 21 -51 25
l-107 3 108 2 c61 1 107 6 107 12 0 6 -76 11 -192 13 l-193 2 193 3 c105 1
192 5 192 10 0 4 -12 15 -27 24 -18 12 -23 18 -13 19 8 1 -7 5 -35 9 l-50 7
63 1 62 2 0 86 0 87 -37 -7 c-94 -16 -153 -19 -153 -7 0 8 -47 11 -161 11
-112 0 -158 -3 -153 -11 3 -6 17 -8 30 -5 13 4 24 2 24 -3 0 -6 8 -8 18 -4 14
5 15 3 4 -8 -10 -11 -22 -11 -70 0 -105 24 -125 26 -194 21 -69 -5 -70 -5 -99
28 -36 41 -40 84 -6 82 44 -4 57 0 57 19 0 10 6 24 14 30 10 9 15 70 20 269 3
141 9 330 12 420 l7 162 -417 0 -416 0 0 -79z m520 19 c0 -5 9 -10 20 -10 11
0 20 5 20 10 0 12 10 13 30 0 24 -15 -25 -60 -65 -60 -40 0 -89 45 -65 60 20
13 60 13 60 0z m-724 -145 c-8 -8 -18 -15 -22 -15 -3 0 -1 7 6 15 7 8 17 15
22 15 5 0 3 -7 -6 -15z m124 9 c0 -8 -19 -13 -24 -6 -3 5 1 9 9 9 8 0 15 -2
15 -3z m817 -96 c-9 -40 -25 -95 -37 -123 -12 -27 -46 -117 -76 -198 -51 -142
-53 -150 -39 -178 9 -16 13 -29 10 -29 -4 0 7 -16 23 -36 17 -20 28 -43 25
-50 -3 -8 -1 -14 5 -14 5 0 13 -16 16 -35 4 -20 16 -64 27 -98 15 -44 19 -77
15 -115 -6 -60 -16 -103 -26 -117 -3 -5 -17 -38 -30 -72 -14 -35 -29 -63 -33
-63 -5 0 -7 -7 -4 -14 4 -9 -1 -17 -11 -21 -9 -3 -27 -20 -39 -37 -13 -18 -23
-27 -23 -21 0 7 -10 17 -21 24 -12 6 -19 7 -15 1 3 -6 3 -17 0 -26 -5 -13 -9
-14 -20 -5 -10 8 -18 9 -27 0 -8 -6 -16 -8 -20 -5 -3 3 -4 -5 -3 -19 3 -21 -1
-24 -25 -21 -16 2 -31 -1 -34 -6 -4 -6 -11 -8 -16 -5 -5 4 -9 2 -9 -3 0 -12
-49 -34 -61 -27 -5 4 -9 1 -9 -4 0 -16 -22 -9 -41 13 -12 15 -18 16 -24 6 -5
-8 -4 -11 3 -6 6 3 13 2 17 -3 3 -6 -6 -8 -22 -5 -33 6 -43 12 -43 26 0 7 4 7
13 -1 10 -8 22 -2 50 24 20 19 37 33 37 30 0 -3 9 3 19 12 11 9 17 23 14 31
-5 11 -1 13 15 8 15 -5 22 -2 27 13 6 21 42 35 51 19 4 -6 10 -5 15 3 8 11 13
10 26 -6 13 -16 15 -17 10 -2 -9 24 9 21 28 -5 l17 -23 -7 23 c-4 12 -3 22 2
21 21 -4 34 2 31 15 -2 8 8 24 21 35 13 12 20 21 15 21 -5 0 -4 4 1 8 21 15
69 75 55 67 -12 -6 -13 -5 -3 5 10 11 15 11 29 -1 16 -13 16 -11 0 14 -10 15
-16 27 -13 27 3 0 2 14 -3 31 -7 23 -6 35 5 45 12 13 14 10 10 -17 -2 -17 -1
-28 2 -25 14 13 10 52 -8 88 -11 21 -18 50 -17 66 1 15 -1 33 -6 40 -4 7 -1
15 9 18 13 6 14 8 3 15 -9 6 -6 9 12 9 19 0 21 3 12 12 -7 7 -12 22 -12 34 0
12 -7 27 -15 34 -8 7 -13 15 -11 19 3 4 -4 8 -15 8 -18 2 -17 0 5 -18 14 -11
26 -25 26 -30 0 -5 -12 2 -27 16 -15 14 -31 25 -35 25 -5 0 -8 5 -8 11 0 5 5
7 10 4 6 -3 10 -2 10 4 0 5 -8 15 -17 20 -11 6 -13 11 -5 11 8 0 10 5 5 13
-13 22 -12 36 4 30 13 -5 13 -2 -1 20 -11 16 -13 27 -7 32 7 4 7 16 -2 38 -13
30 -9 42 64 225 49 124 87 204 105 223 15 16 29 27 32 25 2 -3 -3 -37 -11 -78z
m-777 68 c0 -2 -7 -7 -16 -10 -8 -3 -12 -2 -9 4 6 10 25 14 25 6z m-77 -61
c-3 -9 -8 -14 -10 -11 -3 3 -2 9 2 15 9 16 15 13 8 -4z m33 -13 c-2 -4 7 -12
20 -19 20 -9 26 -8 34 5 7 13 9 14 10 3 0 -12 3 -12 12 -3 7 7 19 12 28 11 10
0 11 -2 3 -6 -19 -7 -16 -23 5 -24 16 -1 16 -2 -1 -6 -9 -2 -15 -8 -12 -13 3
-5 0 -12 -6 -16 -7 -4 -9 -3 -6 2 3 6 2 16 -4 24 -7 12 -9 11 -10 -5 0 -11 -3
-14 -6 -7 -2 6 -12 12 -20 12 -13 0 -13 -2 -2 -17 13 -15 12 -15 -9 -4 -24 13
-62 6 -62 -11 0 -6 -9 -8 -20 -5 -11 3 -18 1 -14 -4 3 -5 -5 -9 -18 -8 -13 0
-17 3 -10 6 6 2 12 11 12 19 0 8 8 14 18 15 10 0 12 3 5 6 -7 2 -13 12 -12 21
0 11 2 12 6 5 2 -7 9 -13 14 -13 6 0 8 4 5 9 -4 5 3 7 14 4 12 -3 20 -2 19 3
-2 14 0 24 7 24 3 0 3 -3 0 -8z m14 -89 c-8 -3 -24 -10 -35 -16 -18 -9 -19 -9
-6 6 7 10 23 17 35 16 14 0 16 -2 6 -6z m143 0 c-7 -2 -19 -2 -25 0 -7 3 -2 5
12 5 14 0 19 -2 13 -5z m329 -75 c17 -11 29 -15 33 -8 10 16 25 11 25 -9 0
-36 22 -79 42 -84 14 -4 19 -11 14 -23 -3 -9 -1 -23 5 -30 8 -10 8 -14 0 -14
-6 0 -11 4 -11 9 0 5 -9 11 -21 14 -11 3 -23 15 -26 26 -3 11 -11 17 -18 15
-7 -3 -16 0 -20 5 -3 6 -10 9 -15 6 -5 -3 -7 4 -5 15 2 13 -1 20 -8 18 -16 -4
-59 40 -47 47 6 4 14 3 20 0 5 -3 7 0 4 9 -3 8 -11 13 -18 10 -7 -3 -13 2 -13
10 0 16 19 11 59 -16z m-955 -20 c-3 -8 -6 -5 -6 6 -1 11 2 17 5 13 3 -3 4
-12 1 -19z m31 -96 c5 -155 11 -211 26 -239 l15 -28 1 25 c0 15 3 21 10 14 6
-6 5 -25 -3 -52 -7 -23 -17 -39 -21 -35 -14 14 1 -50 22 -97 12 -24 18 -48 16
-52 -3 -4 0 -8 6 -8 6 0 8 -4 5 -10 -3 -5 1 -10 9 -10 9 0 16 -4 16 -8 0 -5
12 -15 28 -22 27 -13 34 -15 60 -18 7 -1 10 -7 6 -14 -4 -6 -3 -8 4 -4 6 3 18
-1 27 -10 8 -9 26 -17 40 -18 13 0 22 -3 20 -5 -2 -2 11 -20 30 -40 19 -20 35
-41 35 -47 0 -7 6 -14 14 -17 8 -3 12 -14 9 -25 -3 -12 5 -29 19 -43 13 -14
20 -21 17 -17 -9 13 2 69 12 62 5 -3 6 2 3 11 -8 19 14 75 30 75 8 0 8 2 -1 8
-8 5 -8 17 2 46 18 51 36 69 33 33 -1 -15 -8 -27 -16 -27 -11 0 -12 -3 -4 -13
8 -9 7 -21 -3 -41 -19 -36 -19 -40 1 -32 8 3 12 2 9 -4 -3 -6 -12 -10 -19 -10
-8 0 -13 -11 -13 -27 0 -40 -14 -102 -24 -109 -5 -3 -7 -9 -4 -14 3 -5 -1 -24
-9 -43 -7 -19 -10 -40 -6 -47 6 -9 10 -7 15 9 3 11 10 21 14 21 10 0 -21 -69
-31 -70 -4 0 -7 8 -7 18 1 29 -7 52 -21 65 -10 10 -11 9 -5 -2 6 -10 4 -13 -6
-9 -25 9 -59 -9 -52 -28 4 -11 2 -15 -4 -11 -5 3 -19 -2 -29 -11 -10 -10 -28
-16 -39 -14 -15 2 -17 1 -6 -6 10 -7 5 -12 -20 -17 -19 -4 -40 -12 -46 -17 -9
-7 -13 -6 -13 3 0 11 -2 11 -10 -1 -7 -11 -10 -11 -10 -2 0 7 -4 11 -9 8 -9
-6 -26 22 -22 38 1 4 -3 14 -9 20 -5 7 -7 16 -3 19 3 4 6 21 5 39 0 18 5 39
11 47 10 12 9 14 -6 8 -15 -6 -17 -3 -12 13 5 16 2 20 -19 20 -14 0 -27 4 -30
9 -3 4 6 7 20 5 20 -2 23 0 13 12 -8 9 -16 11 -29 4 -9 -5 -41 -7 -71 -5 -30
2 -59 -1 -66 -6 -16 -14 -28 8 -13 26 11 13 7 15 -20 15 -24 0 -31 -4 -27 -15
4 -8 2 -17 -4 -20 -5 -4 -6 -12 -3 -18 5 -9 4 -9 -5 -1 -16 15 -18 97 -3 127
6 12 16 55 22 94 7 40 16 76 21 79 5 3 7 10 4 15 -4 5 4 9 16 9 12 0 20 3 17
6 -4 3 2 14 13 25 22 22 26 97 7 119 -7 8 -3 6 10 -5 l23 -19 -9 24 c-5 14 -7
31 -5 38 3 7 -3 12 -14 12 -15 0 -16 2 -3 10 12 8 13 13 3 30 -16 24 -16 33
-2 24 8 -5 8 -1 0 14 -14 26 -14 35 0 26 6 -3 3 8 -5 25 -10 18 -14 43 -11 60
3 16 1 33 -5 36 -5 3 -10 14 -10 23 0 14 2 15 9 3 8 -12 12 -10 22 12 6 14 16
24 20 21 5 -3 9 0 9 7 0 6 8 18 18 25 9 7 17 13 17 14 0 0 1 -39 3 -88z m-191
-129 c-2 -12 -1 -21 3 -18 3 2 11 -14 17 -36 6 -22 6 -42 2 -45 -5 -3 -9 2 -9
10 0 18 -13 22 -52 14 -20 -5 -16 25 9 61 14 23 21 44 17 60 l-4 26 10 -25 c6
-14 9 -35 7 -47z m930 12 c0 -8 -4 -12 -9 -9 -5 3 -6 10 -3 15 9 13 12 11 12
-6z m-502 -65 c-15 -5 -7 -8 27 -11 27 -2 49 0 51 5 2 5 12 6 23 2 18 -7 18
-8 1 -20 -16 -12 -14 -14 15 -21 l33 -8 -30 -7 c-22 -6 -24 -8 -9 -9 11 0 29
-11 40 -23 14 -17 15 -20 2 -9 -9 7 -22 10 -28 6 -5 -3 -24 3 -40 15 -16 12
-33 19 -38 17 -4 -3 -18 1 -32 9 -18 9 -20 13 -8 14 9 0 20 4 23 10 4 6 -17 8
-55 6 -34 -2 -60 0 -60 6 0 5 4 7 9 4 5 -3 11 0 14 7 3 7 22 13 43 14 28 0 33
-2 19 -7z m284 -119 c-8 -2 -8 -5 0 -10 8 -5 7 -13 -3 -27 -14 -18 -15 -17
-11 11 2 17 4 37 4 45 1 13 2 13 11 0 6 -10 6 -16 -1 -19z m-4 -93 c-4 -18 -8
-41 -8 -50 -2 -25 -12 -10 -12 18 -1 13 3 24 7 24 5 0 4 9 -2 20 -9 16 -8 20
6 20 13 0 15 -6 9 -32z m-847 -72 c-2 -1 -11 -7 -20 -14 -14 -11 -16 -10 -11
7 3 12 11 17 19 14 8 -3 14 -6 12 -7z m1675 7 c-7 -2 -19 -2 -25 0 -7 3 -2 5
12 5 14 0 19 -2 13 -5z m62 -3 c-3 -5 -12 -7 -20 -3 -21 7 -19 13 6 13 11 0
18 -4 14 -10z m318 3 c-7 -2 -21 -2 -30 0 -10 3 -4 5 12 5 17 0 24 -2 18 -5z
m-250 -10 c-7 -2 -19 -2 -25 0 -7 3 -2 5 12 5 14 0 19 -2 13 -5z m470 0 c-7
-2 -19 -2 -25 0 -7 3 -2 5 12 5 14 0 19 -2 13 -5z m-420 -10 c-7 -2 -19 -2
-25 0 -7 3 -2 5 12 5 14 0 19 -2 13 -5z m-1028 -13 c3 -5 1 -10 -4 -10 -6 0
-11 5 -11 10 0 6 2 10 4 10 3 0 8 -4 11 -10z m852 4 c-3 -3 -12 -4 -19 -1 -8
3 -5 6 6 6 11 1 17 -2 13 -5z m56 -1 c-7 -2 -21 -2 -30 0 -10 3 -4 5 12 5 17
0 24 -2 18 -5z m214 1 c-3 -3 -12 -4 -19 -1 -8 3 -5 6 6 6 11 1 17 -2 13 -5z
m140 0 c-3 -3 -12 -4 -19 -1 -8 3 -5 6 6 6 11 1 17 -2 13 -5z m-264 -11 c-7
-2 -19 -2 -25 0 -7 3 -2 5 12 5 14 0 19 -2 13 -5z m-1803 -97 c0 -2 -8 -10
-17 -17 -16 -13 -17 -12 -4 4 13 16 21 21 21 13z m1840 -11 c-7 -8 -11 -15 -9
-16 34 -5 392 -9 387 -4 -4 4 -55 8 -115 9 -166 4 -182 6 -158 16 30 13 183
12 191 -1 3 -6 17 -8 30 -5 13 4 42 3 64 0 34 -6 38 -9 28 -21 -10 -12 -49
-14 -232 -12 -258 2 -283 5 -297 30 -9 18 -5 19 57 19 58 0 65 -2 54 -15z m37
-51 c-3 -3 -12 -4 -19 -1 -8 3 -5 6 6 6 11 1 17 -2 13 -5z m16 -31 c-24 -2
-62 -2 -85 0 -24 2 -5 4 42 4 47 0 66 -2 43 -4z m190 0 c-7 -2 -19 -2 -25 0
-7 3 -2 5 12 5 14 0 19 -2 13 -5z m-106 -29 c-3 -3 -12 -4 -19 -1 -8 3 -5 6 6
6 11 1 17 -2 13 -5z m196 -1 c-35 -2 -91 -2 -125 0 -35 2 -7 3 62 3 69 0 97
-1 63 -3z m-2360 -50 c-7 -2 -21 -2 -30 0 -10 3 -5 5 12 5 17 0 24 -2 18 -5z
m2044 -29 c-3 -3 -12 -4 -19 -1 -8 3 -5 6 6 6 11 1 17 -2 13 -5z m156 -1 c-7
-2 -21 -2 -30 0 -10 3 -4 5 12 5 17 0 24 -2 18 -5z m-2105 -20 c-10 -2 -28 -2
-40 0 -13 2 -5 4 17 4 22 1 32 -1 23 -4z m1969 -9 c-3 -3 -12 -4 -19 -1 -8 3
-5 6 6 6 11 1 17 -2 13 -5z m336 -1 c-57 -2 -149 -2 -205 0 -57 1 -11 3 102 3
113 0 159 -2 103 -3z m-290 -20 c-7 -2 -19 -2 -25 0 -7 3 -2 5 12 5 14 0 19
-2 13 -5z m-1274 -57 c9 -11 8 -15 -6 -20 -10 -4 -14 -4 -10 0 4 4 2 13 -4 21
-7 8 -8 13 -1 13 5 0 15 -6 21 -14z m-434 -16 c26 -28 15 -31 -14 -3 -13 13
-20 23 -14 23 5 0 18 -9 28 -20z m1903 13 c-38 -2 -98 -2 -135 0 -38 2 -7 3
67 3 74 0 105 -1 68 -3z m-1141 -35 c-3 -8 -6 -5 -6 6 -1 11 2 17 5 13 3 -3 4
-12 1 -19z m1100 6 c-3 -3 -12 -4 -19 -1 -8 3 -5 6 6 6 11 1 17 -2 13 -5z
m-773 -19 c-4 -8 -11 -12 -16 -9 -6 4 -5 10 3 15 19 12 19 11 13 -6z m704 -2
c-10 -2 -26 -2 -35 0 -10 3 -2 5 17 5 19 0 27 -2 18 -5z m-1008 -94 c0 -5 -4
-9 -10 -9 -5 0 -10 11 -10 25 0 16 -4 23 -13 19 -10 -4 -12 3 -9 26 l5 32 18
-42 c11 -23 19 -46 19 -51z m33 66 c-3 -9 -8 -14 -10 -11 -3 3 -2 9 2 15 9 16
15 13 8 -4z m1100 -2 c-29 -2 -78 -2 -110 0 -32 2 -8 3 52 3 61 0 87 -1 58 -3z
m-1429 -80 c12 5 16 0 17 -21 1 -15 1 -33 0 -39 -1 -8 5 -10 16 -6 15 5 16 4
7 -8 -12 -15 -7 -89 6 -89 9 0 5 -63 -5 -80 -4 -7 -3 -15 2 -19 6 -3 9 -13 8
-22 -2 -9 17 -31 40 -50 55 -43 70 -82 59 -155 -5 -35 -83 -121 -109 -121 -9
0 -22 12 -27 26 -8 20 -12 22 -15 10 -5 -19 -70 -33 -108 -23 -15 4 -25 2 -25
-5 0 -20 -19 -11 -34 17 -8 15 -15 23 -16 17 0 -5 -4 -4 -9 4 -17 26 66 151
114 173 44 20 57 69 56 221 -1 101 -5 146 -16 167 -20 40 -18 50 4 21 12 -16
24 -22 35 -18z m226 33 c0 -2 -7 -9 -15 -16 -13 -11 -14 -10 -9 4 5 14 24 23
24 12z m118 -37 c-3 -8 -7 -3 -11 10 -4 17 -3 21 5 13 5 -5 8 -16 6 -23z
m1071 -5 c2 -2 -19 -4 -47 -4 -29 0 -52 4 -52 9 0 8 90 3 99 -5z m-899 -9 c0
-2 -10 -9 -22 -15 -22 -11 -22 -10 -4 4 21 17 26 19 26 11z m-370 -37 c0 -6
-6 -5 -15 2 -8 7 -15 14 -15 16 0 2 7 1 15 -2 8 -4 15 -11 15 -16z m1233 -105
c-7 -2 -19 -2 -25 0 -7 3 -2 5 12 5 14 0 19 -2 13 -5z m35 -30 c-10 -2 -26 -2
-35 0 -10 3 -2 5 17 5 19 0 27 -2 18 -5z m-1158 -37 c0 -3 -4 -8 -10 -11 -5
-3 -10 -1 -10 4 0 6 5 11 10 11 6 0 10 -2 10 -4z m1377 -22 c-3 -3 -12 -4 -19
-1 -8 3 -5 6 6 6 11 1 17 -2 13 -5z m-202 -174 c39 -6 30 -7 -39 -4 -50 2 -92
7 -95 9 -7 8 78 4 134 -5z m-208 -36 c-3 -3 -12 -4 -19 -1 -8 3 -5 6 6 6 11 1
17 -2 13 -5z m108 -14 c-3 -5 -13 -10 -21 -10 -8 0 -12 5 -9 10 3 6 13 10 21
10 8 0 12 -4 9 -10z m-430 -20 c3 -5 1 -10 -4 -10 -6 0 -11 5 -11 10 0 6 2 10
4 10 3 0 8 -4 11 -10z m52 -76 c-3 -3 -12 -4 -19 -1 -8 3 -5 6 6 6 11 1 17 -2
13 -5z m138 -14 l20 -9 -20 0 c-11 0 -27 4 -35 9 -13 9 -13 10 0 9 8 0 24 -4
35 -9z m108 -47 c-7 -2 -19 -2 -25 0 -7 3 -2 5 12 5 14 0 19 -2 13 -5z m112
-13 c3 -5 -3 -7 -12 -5 -10 2 -34 4 -53 4 -21 1 -30 4 -23 9 15 10 81 3 88 -8z
m55 0 c0 -5 -10 -10 -22 -9 -22 0 -22 1 -3 9 11 5 21 9 23 9 1 1 2 -3 2 -9z
m30 0 c0 -5 -4 -10 -10 -10 -5 0 -10 5 -10 10 0 6 5 10 10 10 6 0 10 -4 10
-10z m-173 -36 c-3 -3 -12 -4 -19 -1 -8 3 -5 6 6 6 11 1 17 -2 13 -5z m-1883
-15 c-24 -10 -131 -9 -164 0 -14 4 19 7 79 7 57 0 95 -3 85 -7z m1774 -36
c-10 -2 -26 -2 -35 0 -10 3 -2 5 17 5 19 0 27 -2 18 -5z m315 -60 c-7 -2 -21
-2 -30 0 -10 3 -4 5 12 5 17 0 24 -2 18 -5z m87 -10 c0 -13 -3 -14 -12 -5 -15
15 -32 16 -23 2 4 -6 -7 -10 -26 -10 -31 0 -32 1 -13 15 27 21 74 20 74 -2z
m-2362 -30 c-16 -2 -40 -2 -55 0 -16 2 -3 4 27 4 30 0 43 -2 28 -4z m2220 0
c-10 -2 -26 -2 -35 0 -10 3 -2 5 17 5 19 0 27 -2 18 -5z m175 -10 c-13 -2 -33
-2 -45 0 -13 2 -3 4 22 4 25 0 35 -2 23 -4z m-216 -9 c-3 -3 -12 -4 -19 -1 -8
3 -5 6 6 6 11 1 17 -2 13 -5z m-2050 -11 c-20 -2 -52 -2 -70 0 -17 2 0 4 38 4
39 0 53 -2 32 -4z m1790 1 c-3 -3 -12 -4 -19 -1 -8 3 -5 6 6 6 11 1 17 -2 13
-5z m71 -1 c-10 -2 -26 -2 -35 0 -10 3 -2 5 17 5 19 0 27 -2 18 -5z m355 0
c-7 -2 -21 -2 -30 0 -10 3 -4 5 12 5 17 0 24 -2 18 -5z m-1976 -9 c-3 -3 -12
-4 -19 -1 -8 3 -5 6 6 6 11 1 17 -2 13 -5z m1781 -1 c-21 -2 -55 -2 -75 0 -21
2 -4 4 37 4 41 0 58 -2 38 -4z m-2125 -10 c-7 -2 -19 -2 -25 0 -7 3 -2 5 12 5
14 0 19 -2 13 -5z m520 0 c-13 -2 -33 -2 -45 0 -13 2 -3 4 22 4 25 0 35 -2 23
-4z m1325 0 c-15 -2 -42 -2 -60 0 -18 2 -6 4 27 4 33 0 48 -2 33 -4z m222 -12
c0 -8 -132 -2 -142 8 -4 3 26 5 67 3 41 -2 75 -7 75 -11z m153 12 c-7 -2 -19
-2 -25 0 -7 3 -2 5 12 5 14 0 19 -2 13 -5z m90 0 c-13 -2 -33 -2 -45 0 -13 2
-3 4 22 4 25 0 35 -2 23 -4z m-2146 -9 c-3 -3 -12 -4 -19 -1 -8 3 -5 6 6 6 11
1 17 -2 13 -5z m321 -11 c-27 -2 -69 -2 -95 0 -27 2 -5 3 47 3 52 0 74 -1 48
-3z m1279 1 c-3 -3 -12 -4 -19 -1 -8 3 -5 6 6 6 11 1 17 -2 13 -5z m431 -1
c-16 -2 -40 -2 -55 0 -16 2 -3 4 27 4 30 0 43 -2 28 -4z m59 1 c-3 -3 -12 -4
-19 -1 -8 3 -5 6 6 6 11 1 17 -2 13 -5z m-2214 -11 c-7 -2 -19 -2 -25 0 -7 3
-2 5 12 5 14 0 19 -2 13 -5z m412 -13 c98 -7 87 -7 -61 -3 -100 3 -217 9 -260
13 -95 10 133 2 321 -10z m148 13 c-7 -2 -19 -2 -25 0 -7 3 -2 5 12 5 14 0 19
-2 13 -5z m1395 0 c-10 -2 -26 -2 -35 0 -10 3 -2 5 17 5 19 0 27 -2 18 -5z
m405 0 c-23 -2 -64 -2 -90 0 -26 2 -7 3 42 3 50 0 71 -1 48 -3z m-660 -10
c-13 -2 -33 -2 -45 0 -13 2 -3 4 22 4 25 0 35 -2 23 -4z m395 0 c-21 -2 -57
-2 -80 0 -24 2 -7 4 37 4 44 0 63 -2 43 -4z m-1983 -13 c96 -6 97 -7 25 -7
-41 0 -120 3 -175 7 -96 6 -97 7 -25 7 41 0 120 -3 175 -7z m2205 3 c0 -5 -28
-7 -62 -5 -113 5 -125 9 -30 10 50 1 92 -1 92 -5z"/>
<path d="M1647 1786 c-4 -10 -1 -13 8 -9 8 3 12 9 9 14 -7 12 -11 11 -17 -5z"/>
<path d="M1633 1133 c-15 -5 -17 -23 -4 -23 5 0 11 7 15 15 3 8 4 15 3 14 -1
0 -8 -3 -14 -6z"/>
<path d="M655 1110 c4 -6 11 -8 16 -5 14 9 11 15 -7 15 -8 0 -12 -5 -9 -10z"/>
<path d="M665 1080 c-3 -5 1 -10 9 -10 9 0 16 5 16 10 0 6 -4 10 -9 10 -6 0
-13 -4 -16 -10z"/>
<path d="M745 1830 c3 -5 8 -10 11 -10 2 0 4 5 4 10 0 6 -5 10 -11 10 -5 0 -7
-4 -4 -10z"/>
<path d="M2003 1413 c9 -2 23 -2 30 0 6 3 -1 5 -18 5 -16 0 -22 -2 -12 -5z"/>
<path d="M2528 2593 c7 -3 16 -2 19 1 4 3 -2 6 -13 5 -11 0 -14 -3 -6 -6z"/>
<path d="M2525 2570 c3 -5 8 -10 11 -10 2 0 4 5 4 10 0 6 -5 10 -11 10 -5 0
-7 -4 -4 -10z"/>
<path d="M2474 2515 c5 -13 -10 -15 -99 -15 l-105 0 0 -47 c-1 -27 -3 -105 -6
-175 l-6 -128 171 0 c113 0 171 4 171 10 0 8 -53 9 -162 6 -146 -5 -159 -4
-123 8 l40 14 -45 4 c-25 3 32 6 125 8 l170 4 -170 6 -170 6 168 2 c107 1 167
6 167 12 0 7 -51 10 -145 9 -80 -1 -148 1 -152 5 -3 3 63 7 148 8 l154 2 -165
6 -165 6 163 2 c94 1 162 6 162 11 0 6 -24 12 -52 14 l-53 3 55 4 c40 3 24 6
-60 10 l-115 6 113 2 c104 2 112 3 112 22 0 18 -8 20 -97 23 l-98 3 100 4 100
4 -140 6 -140 6 138 2 c78 1 137 6 137 11 0 6 -24 12 -52 14 l-53 3 55 4 c30
2 -17 7 -105 10 l-160 6 158 2 c86 1 157 6 157 11 0 5 -26 7 -57 5 -63 -3 -39
11 27 17 19 2 -10 6 -65 9 l-100 6 85 2 c47 1 92 7 100 13 11 8 7 9 -18 6 -23
-2 -31 0 -28 8 3 8 -5 13 -20 13 -23 0 -23 -2 -7 -14 10 -7 13 -14 6 -14 -6 0
-18 7 -27 15 -8 8 -18 15 -21 15 -4 0 -5 -7 -1 -15z m-81 -32 c-7 -2 -19 -2
-25 0 -7 3 -2 5 12 5 14 0 19 -2 13 -5z m77 -23 c0 -5 -19 -9 -42 -9 l-43 2
40 7 c22 4 41 8 43 9 1 0 2 -3 2 -9z m-107 -7 c-7 -2 -19 -2 -25 0 -7 3 -2 5
12 5 14 0 19 -2 13 -5z m-26 -139 c-3 -3 -12 -4 -19 -1 -8 3 -5 6 6 6 11 1 17
-2 13 -5z m30 -30 c-3 -3 -12 -4 -19 -1 -8 3 -5 6 6 6 11 1 17 -2 13 -5z"/>
<path d="M2278 2513 c7 -3 16 -2 19 1 4 3 -2 6 -13 5 -11 0 -14 -3 -6 -6z"/>
<path d="M2323 2513 c9 -2 23 -2 30 0 6 3 -1 5 -18 5 -16 0 -22 -2 -12 -5z"/>
<path d="M839 2453 c-13 -16 -12 -17 4 -4 9 7 17 15 17 17 0 8 -8 3 -21 -13z"/>
<path d="M2073 2443 c9 -2 25 -2 35 0 9 3 1 5 -18 5 -19 0 -27 -2 -17 -5z"/>
<path d="M2363 2184 c7 -7 229 -5 236 2 2 2 -51 4 -119 4 -68 0 -121 -3 -117
-6z"/>
<path d="M2260 2110 l0 -30 170 0 c94 0 170 3 170 8 0 4 -75 6 -167 5 -108 -2
-161 1 -148 6 17 8 18 10 3 10 -10 1 -18 5 -18 11 0 6 67 11 168 13 l167 3
-172 2 -173 2 0 -30z"/>
<path d="M2472 2108 c38 -7 70 -7 95 0 33 9 25 10 -57 10 -95 -1 -95 -1 -38
-10z"/>
<path d="M152 2000 c-7 -12 -10 -25 -7 -30 3 -6 -5 -21 -19 -35 -20 -20 -35
-25 -76 -25 -66 0 -65 -18 3 -22 l52 -3 1 -45 c6 -226 6 -220 27 -220 19 0 20
4 13 98 -3 53 -9 114 -11 135 -5 37 -5 37 30 37 37 0 41 -9 36 -80 -1 -23 0
-23 10 -7 6 11 12 24 13 31 1 6 11 30 24 54 25 48 28 62 10 44 -18 -18 -46
-14 -60 8 -7 11 -18 20 -25 20 -7 0 -13 5 -13 11 0 6 7 9 15 5 18 -7 19 4 3
27 -12 16 -14 16 -26 -3z"/>
<path d="M281 1996 c-7 -8 -8 -17 -3 -20 6 -3 12 3 15 14 6 24 4 25 -12 6z"/>
<path d="M2315 1919 c-69 -4 -45 -6 98 -7 125 -1 187 1 187 8 0 11 -103 11
-285 -1z"/>
<path d="M2543 1889 c-17 -5 -41 -22 -51 -37 -17 -24 -18 -32 -7 -74 8 -33 9
-50 1 -58 -7 -7 -5 -10 7 -10 9 0 17 -3 18 -7 5 -49 2 -74 -9 -78 -8 -3 -136
-6 -285 -7 -150 0 -252 -4 -227 -7 25 -3 172 -5 328 -3 l282 3 0 109 0 110
-34 0 c-27 0 -33 -3 -30 -17 2 -10 0 -25 -6 -33 -9 -13 -11 -13 -20 0 -11 16
-5 57 11 76 5 7 25 15 44 18 19 4 35 11 35 16 0 12 -14 11 -57 -1z"/>
<path d="M1870 1710 c0 -5 5 -10 11 -10 5 0 7 5 4 10 -3 6 -8 10 -11 10 -2 0
-4 -4 -4 -10z"/>
<path d="M10 1580 c8 -5 20 -10 25 -10 6 0 3 5 -5 10 -8 5 -19 10 -25 10 -6 0
-3 -5 5 -10z"/>
<path d="M1 1498 l-2 -48 70 0 c38 0 73 5 76 10 12 20 -5 45 -32 47 -16 1 -44
5 -63 9 -29 6 -31 8 -15 14 18 6 17 7 -6 12 -24 4 -26 2 -28 -44z m63 4 c2 -4
-4 -9 -15 -9 -11 -1 -17 2 -14 8 7 11 22 12 29 1z"/>
<path d="M99 1423 c0 -10 -3 -13 -6 -5 -6 15 -53 16 -53 0 0 -9 -3 -9 -12 0
-18 18 -28 15 -28 -8 0 -18 7 -20 70 -20 40 0 70 4 70 10 0 6 -7 10 -16 10 -8
0 -13 4 -9 9 3 5 1 12 -5 16 -5 3 -10 -2 -11 -12z"/>
<path d="M2131 462 c-1 -8 -6 -10 -13 -6 -10 5 -10 4 -1 -6 15 -16 28 -8 20
12 -4 11 -6 11 -6 0z"/>
<path d="M2380 462 c24 -4 24 -5 5 -13 -15 -7 -13 -8 12 -5 20 3 33 1 36 -7 2
-7 8 -4 14 8 10 19 8 20 -41 21 -28 1 -40 -1 -26 -4z"/>
<path d="M2465 440 c-18 -20 -18 -20 61 -18 l79 2 -70 6 c-77 6 -70 18 15 23
l55 3 -61 2 c-50 2 -64 -2 -79 -18z"/>
<path d="M2183 424 c7 -7 158 -6 165 1 3 3 -34 5 -83 5 -49 0 -86 -3 -82 -6z"/>
<path d="M2167 389 c-10 -6 -24 -9 -30 -6 -7 2 -21 1 -32 -4 -16 -6 -14 -8 12
-8 17 -1 33 -7 36 -13 3 -10 9 -10 24 -2 11 7 30 10 44 8 27 -5 58 11 46 23
-5 4 -11 2 -15 -4 -4 -6 -19 -9 -34 -6 -15 3 -25 9 -22 14 7 12 -7 11 -29 -2z"/>
<path d="M2290 381 c0 -5 7 -12 16 -15 24 -9 27 -7 10 9 -17 17 -26 19 -26 6z"/>
<path d="M2558 343 c7 -3 16 -2 19 1 4 3 -2 6 -13 5 -11 0 -14 -3 -6 -6z"/>
<path d="M2386 316 c3 -8 13 -12 27 -8 20 5 20 6 1 13 -29 11 -34 10 -28 -5z"/>
<path d="M2560 320 c0 -5 9 -10 21 -10 11 0 17 5 14 10 -3 6 -13 10 -21 10 -8
0 -14 -4 -14 -10z"/>
<path d="M2448 313 c6 -2 18 -2 25 0 6 3 1 5 -13 5 -14 0 -19 -2 -12 -5z"/>
<path d="M2493 283 c9 -2 23 -2 30 0 6 3 -1 5 -18 5 -16 0 -22 -2 -12 -5z"/>
<path d="M2558 283 c7 -3 16 -2 19 1 4 3 -2 6 -13 5 -11 0 -14 -3 -6 -6z"/>
</g>
</svg>
